<svg width="67" height="124" viewBox="0 0 67 124" fill="none" xmlns="http://www.w3.org/2000/svg">
<path d="M20.959 86.14L19.241 75.0252C19.241 75.0252 25.4256 73.9832 33.3282 73.9832C41.5744 73.9832 47.759 75.0252 47.759 75.0252L46.041 86.14C46.041 86.14 38.3001 85.4378 33.3282 85.4454C28.4903 85.4527 20.959 86.14 20.959 86.14Z" fill="#00C0C0"/>
<path d="M16.4923 75.3725L9.27692 76.7619L10.9949 87.1821L18.2103 86.14L16.4923 75.3725Z" fill="#00C0C0"/>
<path d="M50.5077 75.3725L57.0359 77.1092L56.0051 87.1821L48.7897 86.14L50.5077 75.3725Z" fill="#00C0C0"/>
<path d="M23.0205 101.423L21.3026 88.5714C21.3026 88.5714 28.6242 87.8843 33.3282 87.8768C38.1661 87.869 45.6974 88.5714 45.6974 88.5714L43.6359 101.423C43.6359 101.423 37.3737 101.076 33.3282 101.076C29.2827 101.076 23.0205 101.423 23.0205 101.423Z" fill="#00C0C0"/>
<path d="M18.5538 88.9188L11.3384 89.9608L13.7436 103.16L20.2718 101.77L18.5538 88.9188Z" fill="#00C0C0"/>
<path d="M48.4462 88.9188L55.6616 89.9608L53.2564 103.16L46.7282 101.77L48.4462 88.9188Z" fill="#00C0C0"/>
<path d="M41.5743 117.053H24.7385L26.4564 124H39.8564L41.5743 117.053Z" fill="#00C0C0"/>
<path d="M15.8051 114.275L14.0872 105.938C28.6554 102.048 45.5829 104.317 52.2257 105.938L50.1641 114.275H15.8051Z" fill="#00C0C0"/>
<path d="M67 96.2129L59.0974 88.9188L53.6 114.622L66.6564 124L67 96.2129Z" fill="#00C0C0"/>
<path d="M-7.62939e-06 96.2129L7.90256 88.9188L13.4 114.622L0.343582 124L-7.62939e-06 96.2129Z" fill="#00C0C0"/>
<path fill-rule="evenodd" clip-rule="evenodd" d="M33.3477 0V4.51541C33.3477 4.51541 26.9065 10.8567 21.322 19.451C17.7655 24.9243 14.9649 31.6282 13.0759 37.1653C8.4089 50.8447 8.95278 73.9832 8.95278 73.9832C8.95278 73.9832 20.959 70.9169 33.3477 70.8571C46.3846 70.7943 57.3989 73.9832 57.3989 73.9832C57.3989 73.9832 58.6754 50.9028 54.3066 37.1653C52.4912 31.4567 49.9669 25.0597 46.4041 19.451C41.1068 11.1119 34.722 4.51541 34.722 4.51541V0H33.3477ZM33.3476 50.0168C39.4199 50.0168 44.3425 45.0406 44.3425 38.902C44.3425 32.7634 39.4199 27.7871 33.3476 27.7871C27.2753 27.7871 22.3528 32.7634 22.3528 38.902C22.3528 45.0406 27.2753 50.0168 33.3476 50.0168Z" fill="#00C0C0"/>
<ellipse cx="33.3282" cy="39.2493" rx="8.58974" ry="8.68347" fill="#00C0C0"/>
</svg>
